PathFileType	4	(X/Y/Z)	D:/视觉行为平台/test_2/20260814/mocap/street1/street1-Unnamed.trc
DataRate	CameraRate	NumFrames	NumMarkers	Units	OrigDataRate	OrigDataStartFrame	OrigNumFrames	useTimeStamp
90	90	     12	0	mm	90	16972	     22628	         1
Frame#	Time	Timestamp	
			X1	Y1	Z1	X2	Y2	Z2	X3	Y3	Z3	X4	Y4	Z4	X5	Y5	Z5	X6	Y6	Z6	X7	Y7	Z7	X8	Y8	Z8	X9	Y9	Z9	X10	Y10	Z10	X11	Y11	Z11	X12	Y12	Z12	X13	Y13	Z13	X14	Y14	Z14	X15	Y15	Z15	X16	Y16	Z16	X17	Y17	Z17	X18	Y18	Z18	X19	Y19	Z19	X20	Y20	Z20	X21	Y21	Z21	X22	Y22	Z22	X23	Y23	Z23	X24	Y24	Z24	X25	Y25	Z25	X26	Y26	Z26	X27	Y27	Z27	X28	Y28	Z28	X29	Y29	Z29	X30	Y30	Z30	X31	Y31	Z31	X32	Y32	Z32	X33	Y33	Z33	X34	Y34	Z34	X35	Y35	Z35	X36	Y36	Z36	X37	Y37	Z37	X38	Y38	Z38	X39	Y39	Z39	X40	Y40	Z40	X41	Y41	Z41	X42	Y42	Z42	X43	Y43	Z43	X44	Y44	Z44	X45	Y45	Z45	X46	Y46	Z46	X47	Y47	Z47	X48	Y48	Z48	X49	Y49	Z49	X50	Y50	Z50	X51	Y51	Z51	X52	Y52	Z52	X53	Y53	Z53	X54	Y54	Z54	X55	Y55	Z55	

16972	188.566	1787219135579	1687.334351	24.549454	602.344238	1620.352295	306.548065	625.986084	1687.027100	1348.764282	618.247986	1514.601318	32.342815	623.254944	1407.360596	17.206947	855.663879	1750.549194	822.912292	580.080566	1477.221069	952.999878	656.630493	1414.282227	931.145264	769.693481	1627.667236	437.812683	635.316040	1709.275269	1223.496094	599.356873	1491.250854	27.749979	1034.219482	1623.205688	1639.758667	668.843567	1649.091187	902.181030	622.913635	1728.911499	1017.708923	558.637268	1583.734985	1336.296509	586.073547	1700.839111	1655.135742	717.847351	1639.783691	1029.337036	599.865479	1351.885254	1089.749268	1008.785034	1387.552734	1092.789673	916.334167	1385.414673	1003.613770	1055.905640	1420.573486	207.670364	944.887451	1435.229126	915.123413	922.002930	1681.361206	1048.897339	550.259521	1784.922363	796.290222	585.671570	1796.738770	780.983459	590.500488	1498.551392	882.104858	1059.829590	1694.593750	39.850590	685.516602	
16973	188.577	1787219135590	1687.334351	24.549454	602.344238	1620.302612	306.555420	626.155762	1686.944946	1348.810791	618.132263	1514.527710	32.338005	623.203613	1407.616455	17.061644	855.663269	1750.572632	822.845947	579.903381	1477.231323	952.910156	656.458313	1414.380127	931.169739	769.854004	1627.657837	437.847931	635.312256	1709.415283	1223.794922	599.653931	1490.889282	28.354511	1034.120483	1623.113525	1639.789917	668.793152	1648.949097	902.198914	622.717346	1728.911499	1017.708923	558.637268	1583.734985	1336.296509	586.073547	1700.663696	1655.108765	717.763916	1639.703125	1029.342529	599.619141	1351.720459	1089.692749	1008.754517	1387.361328	1092.787109	916.229492	1385.429565	1003.469971	1055.933472	1420.627197	207.538681	944.809448	1435.211670	915.107239	921.948853	1681.369385	1048.889526	550.250916	1784.924561	796.236694	585.693054	1796.803467	780.942749	590.571106	1498.818726	881.992371	1059.652954	
16974	188.588	1787219135601	1687.760498	24.159269	602.965027	1620.369751	306.711334	625.769958	1686.955444	1348.959961	618.365723	1514.586304	32.381226	623.213867	1407.558472	16.984089	855.636536	1750.703003	822.796448	579.991394	1477.231323	952.910156	656.458313	1414.336304	931.162659	769.779114	1627.792603	437.642181	635.390442	1709.280518	1223.585693	599.485046	1491.028198	27.887743	1034.129517	1622.993164	1639.830078	668.707520	1648.816650	902.412048	622.232300	1728.874756	1017.728210	558.598022	1583.734985	1336.296509	586.073547	1700.535400	1655.136597	717.628601	1639.636475	1029.387939	599.609497	1352.012329	1089.597656	1008.951782	1387.432129	1092.698486	916.234924	1385.483521	1003.436584	1055.958496	1420.648071	207.605789	944.962830	1435.520874	914.844666	921.905334	1681.365356	1048.885986	550.219238	1784.901367	796.235779	585.691772	1796.921631	781.055786	590.224915	1498.818726	881.992371	1059.652954	
16975	188.600	1787219135612	1687.625977	24.339821	602.582397	1620.405884	306.671356	625.864990	1686.877930	1348.995605	618.277100	1514.647217	32.346474	623.222229	1407.570312	17.056963	855.576538	1750.688965	822.779480	579.995483	1477.089600	952.976868	656.447754	1414.321899	931.168701	769.747864	1627.699219	437.633270	635.334290	1709.206909	1223.527100	599.274292	1491.007080	27.937134	1034.110840	1622.897461	1639.861694	668.626587	1649.125854	902.139282	622.807861	1728.879517	1017.739014	558.671143	1583.691895	1336.245605	586.244263	1700.226562	1655.203857	717.302124	1639.783691	1029.337036	599.865479	1352.195801	1089.657227	1008.982056	1387.410522	1092.223389	916.046265	1385.456787	1003.125793	1055.747192	1420.604248	207.605728	944.936035	1435.244873	915.176086	921.945618	1681.360107	1048.892212	550.230408	1784.915771	796.273132	585.626160	1796.970581	781.394958	590.221497	1498.818726	881.992371	1059.652954	
16976	188.611	1787219135623	1687.468750	24.368956	602.726807	1620.313599	306.758423	625.954407	1686.960571	1349.016479	618.360535	1514.594238	32.329456	623.211243	1407.584595	17.001768	855.647766	1750.717651	822.851746	579.986084	1477.115845	952.990967	656.449890	1414.326050	931.158936	769.763123	1627.721436	437.637085	635.386353	1709.198975	1223.891968	599.394409	1491.282349	27.767366	1034.229004	1622.806152	1639.892334	668.565430	1649.125854	902.139282	622.807861	1728.833862	1017.757324	558.593140	1583.400635	1336.406860	585.903870	1700.125000	1655.179688	717.380493	1639.636475	1029.387939	599.609497	1351.895386	1089.313721	1008.664978	1387.373169	1092.222656	915.978210	1385.479980	1003.120850	1055.739136	1420.627197	207.538681	944.809448	1435.481689	914.849365	921.866333	1681.352295	1048.891113	550.196960	1785.752075	798.948059	587.825256	1796.761353	781.220764	591.000000	1498.952881	882.072815	1059.576416	
16977	188.622	1787219135634	1687.266602	24.820675	602.092529	1620.345825	306.729279	625.766113	1686.822754	1349.050171	618.238342	1514.608276	32.248604	623.235291	1407.414429	17.211678	855.606995	1750.958618	823.016846	580.054077	1477.272949	952.921021	656.524536	1414.325928	931.152222	769.768311	1627.699219	437.633270	635.334290	1709.198975	1223.891968	599.394409	1490.993530	27.870962	1034.117554	1622.569458	1639.830688	668.457825	1649.295410	902.009521	622.995850	1728.847534	1017.746460	558.589233	1583.400635	1336.406860	585.903870	1699.588257	1655.224976	716.766602	1639.546265	1029.409790	599.586731	1351.912842	1089.157959	1008.495911	1387.538330	1092.014526	916.083984	1385.508057	1003.106567	1055.745972	1420.508545	207.694305	944.836731	1435.433350	914.972473	921.763550	1681.330933	1048.902710	550.175537	1785.060913	796.433228	585.636475	1797.203979	781.458069	590.137512	1498.818726	881.992371	1059.652954	1694.866699	39.444645	686.608948	
16978	188.633	1787219135645	1687.625977	24.339821	602.582397	1620.355713	306.539795	626.026306	1686.797485	1349.055786	618.224487	1514.678345	32.181324	623.209534	1407.414429	17.211678	855.606995	1750.814331	822.841553	580.015076	1477.173340	952.934692	656.337402	1414.232178	931.171143	769.580872	1627.633301	437.629822	635.330322	1709.224243	1223.845825	599.493469	1491.028198	27.887743	1034.129517	1622.333618	1639.745117	668.367737	1649.125854	902.139282	622.807861	1728.817871	1017.761536	558.554810	1583.086914	1336.499512	585.509521	1699.539307	1655.351440	716.671631	1639.703125	1029.342529	599.619141	1351.959473	1089.135254	1008.553528	1387.518677	1091.951416	915.960693	1385.560669	1002.906250	1055.679321	1420.627197	207.538681	944.809448	1435.422241	914.962646	921.727661	1681.298340	1049.228271	550.051575	1785.077271	796.444031	585.500061	1797.250366	781.533020	590.051025	1498.952881	882.072815	1059.576416	
16979	188.644	1787219135656	1687.334351	24.549454	602.344238	1620.336548	306.726379	625.917847	1686.568115	1349.071289	617.963440	1514.609253	32.363903	623.217468	1407.584595	17.001768	855.647766	1750.942383	823.023315	580.160400	1477.189331	952.906006	656.386780	1414.238159	931.138672	769.617798	1627.633301	437.629822	635.330322	1709.055054	1223.669434	599.248901	1491.059692	27.905132	1034.139038	1622.245239	1639.775757	668.339905	1648.983765	902.157104	622.611633	1728.732666	1017.812561	558.496277	1583.047852	1336.543213	585.613220	1699.166992	1655.283569	716.388184	1639.540894	1029.384766	599.461426	1351.829712	1088.715942	1008.393555	1387.622070	1091.979980	915.991394	1385.661987	1002.851868	1055.618896	1420.508545	207.694305	944.836731	1435.408081	914.927368	921.745300	1681.268188	1048.932617	550.093262	1785.066040	796.466370	585.458313	1797.414917	781.689392	590.275024	1499.049072	882.187439	1059.579590	
16980	188.655	1787219135667	1687.625977	24.339821	602.582397	1620.352295	306.548065	625.986084	1686.602417	1349.196899	618.095947	1514.538086	32.332588	623.232788	1407.596436	17.074638	855.587769	1751.065674	822.929871	580.040771	1477.073608	952.979980	656.382812	1414.232178	931.171143	769.580872	1627.633301	437.629822	635.330322	1709.168701	1223.869263	599.429932	1490.997559	27.982014	1034.054810	1621.726074	1639.347290	668.065491	1648.605225	902.496765	621.827271	1728.735229	1017.818970	558.538391	1582.938477	1336.581665	585.335938	1699.144531	1655.416016	716.297546	1639.636475	1029.387939	599.609497	1351.759155	1088.642334	1008.468872	1387.685425	1091.798462	915.985901	1385.771729	1002.874207	1055.678955	1420.597778	207.601639	944.762451	1435.422241	914.962646	921.727661	1681.250610	1048.938721	550.058594	1785.318726	797.107361	585.723450	1797.307861	781.655701	590.225464	1499.331177	881.958496	1059.479248	
16981	188.666	1787219135679	1687.334351	24.549454	602.344238	1620.244995	306.656372	625.919434	1686.276978	1349.203125	617.836914	1514.501465	32.258308	623.250000	1407.400269	17.266863	855.535767	1751.278076	822.890137	580.056885	1477.189331	952.906006	656.386780	1414.238159	931.138672	769.617798	1627.633301	437.629822	635.330322	1709.078979	1223.995728	599.455383	1490.547852	28.504274	1033.978882	1621.631714	1639.653320	668.173035	1648.851440	902.370239	622.126648	1728.692139	1017.833679	558.452026	1582.869385	1336.544189	585.583923	1698.977173	1655.454468	716.425232	1639.268799	1029.454224	599.130005	1351.828003	1088.609741	1008.550964	1387.730103	1091.828979	915.893188	1385.955566	1002.882568	1055.652832	1420.700317	207.585648	944.711487	1435.411743	914.969971	921.647278	1681.211792	1048.960083	550.021545	1785.236450	797.054016	585.731995	1797.370605	781.743225	590.304932	1499.331177	881.958496	1059.479248	
16982	188.677	1787219135689	1687.334351	24.549454	602.344238	1620.196411	306.427704	626.193481	1686.145874	1349.134888	617.674744	1514.497559	32.266266	623.284363	1407.388428	17.194002	855.595764	1751.317993	822.881714	579.935791	1477.189331	952.906006	656.386780	1414.232178	931.171143	769.580872	1627.633301	437.629822	635.330322	1709.088501	1223.973633	599.501892	1491.282471	27.800667	1034.209473	1621.374390	1639.388672	667.951233	1648.669189	902.315430	621.960388	1728.657593	1017.854675	558.429321	1582.834717	1336.570068	585.418640	1698.691406	1655.513672	716.129089	1639.268799	1029.454224	599.130005	1352.066528	1088.614868	1008.634399	1387.675537	1091.775024	915.983704	1385.908447	1002.826599	1055.611450	1420.834595	207.372742	944.720093	1435.431152	914.994934	921.688232	1681.213379	1048.954712	550.001282	1785.241089	797.055359	585.733704	1797.418457	781.892090	590.319214	1499.331177	881.958496	1059.479248	1694.593750	39.850590	685.516602	
16983	188.688	1787219135701	1687.334351	24.549454	602.344238	1620.141846	306.494904	626.145569	1686.218872	1349.223877	617.785461	1514.431274	32.342289	623.247559	1407.552246	16.971006	855.618774	1751.280396	822.854126	580.150818	1477.149902	952.693481	656.442688	1414.232178	931.171143	769.580872	1627.633301	437.629822	635.330322	1708.940186	1223.951538	599.195557	1491.028198	27.887743	1034.129517	1620.963257	1639.443726	667.878967	1648.882690	902.326782	622.033081	1728.630859	1017.872070	558.418274	1582.798462	1336.615356	585.512024	1698.499268	1655.583862	715.868652	1639.268799	1029.454224	599.130005	1352.066528	1088.614868	1008.634399	1387.653564	1091.890747	915.979553	1385.924561	1002.819702	1055.612915	1420.838501	207.436966	944.864441	1435.511475	914.882385	921.746338	1681.186768	1048.969849	549.978210	1785.221069	797.093933	585.661560	1797.433838	781.892151	590.452148	1499.452881	881.684753	1059.315796	1694.520508	39.725094	685.785706	
